<svg width="76" height="30" viewBox="0 0 76 30" fill="none" xmlns="http://www.w3.org/2000/svg">
<path d="M4.86506 5.81818L9.25959 19.6321H9.42827L13.8317 5.81818H18.093L11.8253 24H6.87145L0.594815 5.81818H4.86506ZM31.5119 5.81818H35.356V17.6257C35.356 18.9515 35.0394 20.1115 34.4061 21.1058C33.7787 22.1001 32.8998 22.8755 31.7694 23.4318C30.6389 23.9822 29.322 24.2575 27.8187 24.2575C26.3095 24.2575 24.9896 23.9822 23.8592 23.4318C22.7288 22.8755 21.8498 22.1001 21.2225 21.1058C20.5951 20.1115 20.2814 18.9515 20.2814 17.6257V5.81818H24.1255V17.2972C24.1255 17.9897 24.2765 18.6052 24.5783 19.1438C24.8861 19.6824 25.3181 20.1056 25.8745 20.4134C26.4308 20.7211 27.0789 20.875 27.8187 20.875C28.5645 20.875 29.2125 20.7211 29.763 20.4134C30.3193 20.1056 30.7484 19.6824 31.0502 19.1438C31.358 18.6052 31.5119 17.9897 31.5119 17.2972V5.81818ZM42.3628 5.81818V24H38.5187V5.81818H42.3628Z" fill="#313131"/>
<path d="M71.7031 11.772H66.3247L71.1611 5.66113C71.2612 5.53174 71.1709 5.34375 71.0073 5.34375H61.6445C61.5762 5.34375 61.5102 5.38037 61.4761 5.44141L55.1504 16.3667C55.0747 16.4961 55.1675 16.6597 55.3188 16.6597H59.5767L57.394 25.3901C57.3476 25.5806 57.5771 25.7148 57.7187 25.5781L71.8374 12.1064C71.9643 11.9868 71.8789 11.772 71.7031 11.772Z" fill="#FFB800"/>
</svg>
